<svg xmlns="http://www.w3.org/2000/svg" width="261.028" height="84.15" viewBox="0 0 261.028 84.15"><g transform="translate(-49 -82)"><path d="M179.346,320.8l1.1-.342a2.012,2.012,0,0,1,2.546,1.44,22.634,22.634,0,0,1,.745,6.483A20.187,20.187,0,0,1,182,335.83a22.651,22.651,0,0,1-4.792,6.75q-7.14,7.14-15.846,6.486a22.325,22.325,0,0,1-14.605-6.553,22.058,22.058,0,0,1-6.487-13.3,19.708,19.708,0,0,1,6.045-17.093,20.356,20.356,0,0,1,17.575-6.259,21.523,21.523,0,0,1,11.583,5.278,2.012,2.012,0,0,1,.131,2.959l-23.249,23.249a2,2,0,0,0,.17,2.99,16.206,16.206,0,0,0,9.891,3.618,14.653,14.653,0,0,0,11.01-4.509,17.636,17.636,0,0,0,3.561-5.111,16.126,16.126,0,0,0,1.527-5.641,21.094,21.094,0,0,0-.542-5.572A2,2,0,0,1,179.346,320.8Zm-11.556-5.381a2,2,0,0,0-.583-3.244,15.079,15.079,0,0,0-4.48-1.292,14.644,14.644,0,0,0-6.7.9,16.463,16.463,0,0,0-6.066,3.868,15.13,15.13,0,0,0-4.622,10.146,15.447,15.447,0,0,0,1.344,6.816,2.007,2.007,0,0,0,3.269.639Z" transform="translate(-91.102 -203.956)" fill="#fff"/><path d="M248.336,306.8h1.3a2.006,2.006,0,0,1,2.006,2.006v.334a2.008,2.008,0,0,0,3.366,1.475,18.747,18.747,0,0,1,13-4.877,20.372,20.372,0,0,1,15.041,6.333,20.922,20.922,0,0,1,6.252,15.246,21.311,21.311,0,0,1-6.195,15.454,20.857,20.857,0,0,1-24,4.3,22.572,22.572,0,0,1-7.146-5.726.179.179,0,0,0-.317.114v19.685a2.006,2.006,0,0,1-2.006,2.007h-1.3a2.006,2.006,0,0,1-2.006-2.007V308.806A2.006,2.006,0,0,1,248.336,306.8Zm19.232,4.058a15.594,15.594,0,0,0-11.6,4.811,16.429,16.429,0,0,0-4.711,11.97,16.993,16.993,0,0,0,2.1,8.448,15.325,15.325,0,0,0,6.016,5.947,16.649,16.649,0,0,0,8.267,2.2,15.585,15.585,0,0,0,8.04-2.216,16.265,16.265,0,0,0,6-6.194,16.733,16.733,0,0,0,.018-16.667,15.988,15.988,0,0,0-14.131-8.3Z" transform="translate(-144.413 -203.979)" fill="#fff"/><path d="M351.851,273.763a4.38,4.38,0,0,1,0,8.76,4.4,4.4,0,0,1-4.329-4,4.512,4.512,0,0,1,1.6-3.771A4.123,4.123,0,0,1,351.851,273.763Zm-.629,16.99h1.3a2.006,2.006,0,0,1,2.007,2.006v37.249a2.006,2.006,0,0,1-2.007,2.007h-1.3a2.006,2.006,0,0,1-2.006-2.007V292.759A2.006,2.006,0,0,1,351.221,290.753Z" transform="translate(-195.19 -187.933)" fill="#fff"/><path d="M399.779,314.272l-.625.646a2.014,2.014,0,0,1-2.727.145,11.054,11.054,0,0,0-6.94-2.894,6.292,6.292,0,0,0-4.43,1.707,5.27,5.27,0,0,0-1.844,3.982,5.9,5.9,0,0,0,1.52,3.83q1.521,1.858,6.385,4.361,5.928,3.072,8.057,5.916a10.778,10.778,0,0,1,2.09,6.485,11.643,11.643,0,0,1-3.571,8.609,12.19,12.19,0,0,1-8.925,3.527,15.594,15.594,0,0,1-6.818-1.555,15.034,15.034,0,0,1-4.127-2.879,2,2,0,0,1-.078-2.736l.744-.845a2,2,0,0,1,2.845-.168,10.6,10.6,0,0,0,7.208,3.139,7.774,7.774,0,0,0,5.436-2.048,6.326,6.326,0,0,0,2.243-4.816,6.172,6.172,0,0,0-1.482-4.058q-1.482-1.744-6.689-4.4-5.587-2.882-7.6-5.689a10.716,10.716,0,0,1-2.014-6.409,10.422,10.422,0,0,1,3.21-7.812,11.182,11.182,0,0,1,8.11-3.11q4.9,0,9.861,4.127A2.011,2.011,0,0,1,399.779,314.272Z" transform="translate(-210.112 -204.714)" fill="#fff"/><path d="M638.413,316.272l-.625.646a2.015,2.015,0,0,1-2.727.145,11.054,11.054,0,0,0-6.94-2.894,6.291,6.291,0,0,0-4.43,1.707,5.268,5.268,0,0,0-1.844,3.982,5.9,5.9,0,0,0,1.52,3.83q1.52,1.858,6.385,4.361,5.928,3.072,8.058,5.916a10.781,10.781,0,0,1,2.09,6.485,11.642,11.642,0,0,1-3.571,8.609,12.189,12.189,0,0,1-8.925,3.527,15.6,15.6,0,0,1-6.818-1.555,15.042,15.042,0,0,1-4.127-2.879,2,2,0,0,1-.078-2.736l.744-.845a2,2,0,0,1,2.845-.168,10.6,10.6,0,0,0,7.207,3.139,7.774,7.774,0,0,0,5.436-2.048,6.327,6.327,0,0,0,2.243-4.816,6.172,6.172,0,0,0-1.482-4.058q-1.482-1.744-6.689-4.4-5.588-2.882-7.6-5.689a10.715,10.715,0,0,1-2.014-6.409,10.424,10.424,0,0,1,3.21-7.812,11.183,11.183,0,0,1,8.11-3.11q4.9,0,9.861,4.127A2.011,2.011,0,0,1,638.413,316.272Z" transform="translate(-329.87 -205.717)" fill="#fff"/><g transform="translate(192.597 82)"><path d="M513.583,426.192l-1.341,1.579c.6-1.835,1.327-3.039,2.795-2.757a3.44,3.44,0,0,1,2.293,1.858,3.1,3.1,0,0,1-1.03,2.581,2.158,2.158,0,0,1-3.116-.354l.946-2.693Z" transform="translate(-470.458 -345.818)" fill="#deb992"/><path d="M446.23,380.223c.112-1.34.348-2.416,1.844-2.326,1.394.084,2.254,1.06,1.925,2.274a3.269,3.269,0,0,1-2.181,1.872C446.635,382.278,446.029,381.326,446.23,380.223Z" transform="translate(-437.311 -322.19)" fill="#deb992"/><path d="M447.164,303.753a7.8,7.8,0,0,1-2.389,1.488,1.3,1.3,0,0,1-1.543-1.775c.288-.87,1-2.036,1.711-2.19.609-.132,1.483.984,2.241,1.549Z" transform="translate(-435.78 -283.734)" fill="#deb992"/><path d="M529.535,419.31a5.7,5.7,0,0,1,.944,1.907c.025.264-1.127,1.018-1.513.882-1.89-.664.605-1.616-.479-2.437Z" transform="translate(-478.484 -342.976)" fill="#deb992"/><path d="M537.756,266.074a3.057,3.057,0,0,0-3.1,3.018,3.157,3.157,0,0,0,3.022,3.34,3.3,3.3,0,0,0,3.26-3.148A3.25,3.25,0,0,0,537.756,266.074Z" transform="translate(-481.705 -266.074)" fill="#deb992"/><path d="M516.309,294.26c.3,1.442-.915,2.649-2.828,2.63l.5-1.83a13.132,13.132,0,0,1-9.656,2.526c-.762-.108-1.416-1-2.119-1.526a12.117,12.117,0,0,1,1.71-2.087,5.6,5.6,0,0,1,1.984-.653c1.321-.366,2.055-1.187,1.571-2.563a2.055,2.055,0,0,0-2.881-1.451,5.666,5.666,0,0,0-2.328,2.119c-.66,1.073-.811,2.459-1.442,3.558-.428.744-1.3,1.7-1.98,1.7a3.68,3.68,0,0,1-2.416-1.458,8.307,8.307,0,0,1-1.127-2.851,7.5,7.5,0,0,0-4.933-5.249,40.632,40.632,0,0,1-4.626-1.836,6.066,6.066,0,0,1-2.237-2c-1.876-2.884-2.827-3.219-6-1.766-1.384.634-2.291.149-2.317-1.389a23.968,23.968,0,0,1,.488-2.424,2.794,2.794,0,0,0-.3-1.69,1.352,1.352,0,0,0-1.325-.122,4.309,4.309,0,0,0-.771,1.8c-.058.238.258.566.4.856,1.043,2.181.763,3.552-1.491,4.3a25.488,25.488,0,0,1-7.236,1.274c-2.285.064-4.25-.01-5.438,2.5-.688,1.451-2.158,1.492-3.074.14a18.8,18.8,0,0,1-1.557-3.679c-.425-1.074-.822-2.16-1.346-3.542l-2.2,1.92c1.426,1.734,2.724,3.232,3.912,4.816.294.392.229,1.057.329,1.6A9.433,9.433,0,0,1,454,288.1c-.751-.016-1.5-.152-2.368-.251.9,3.657.939,3.785-1.921,5.774a8.738,8.738,0,0,0-3.59,6.105c-.819,4.5-2.491,5.5-6.729,3.881a79.856,79.856,0,0,1-7.383-3.623,2.515,2.515,0,0,0-3.23.879c-.37.424-.533,1.718-.307,1.867a6.708,6.708,0,0,0,2.953,1.181c1.571.132,3.2-.325,4.755-.144,2.107.245,4.2.849,5.161,3.119.737,1.732-.4,3.673-2.132,3.28-2.309-.524-3.043,1.1-4.184,2.536a4.224,4.224,0,0,0,2.214.092c.667-.169,1.252-.653,1.916-.853,1.183-.356,2.019.012,1.617,1.4-.8,2.757.073,5.1,1.6,7.28a3.793,3.793,0,0,1,.293,4.17c-1.157,2.419-.81,2.931,1.674,3.984a11.568,11.568,0,0,1,3.689,2.529,1.674,1.674,0,0,1-.709,2.943c-1.969.615-2.406,1.938-2.4,4.133a11.447,11.447,0,0,0,1.8-.888,11.59,11.59,0,0,0,1.16-1.276c2.3-2.329,4.488-1.771,5.26,1.393a2.215,2.215,0,0,0,2.3,1.886c.7.026,1.4-.12,2.1-.11,2.094.03,3.332,1.1,2.908,3.106a23.7,23.7,0,0,1-2.29,5.15c-.241.494-.859.863-.948,1.355a34.852,34.852,0,0,0-.308,3.642c1.746.382,2.991-.808,3.318-3.4a21.22,21.22,0,0,1,.488-3.625c.763-2.461,2.84-3.3,5.156-2.221a15.09,15.09,0,0,1,1.665.954c3.812,2.409,5.452,2.251,8.822-.865,2.945-2.723,3.1-2.765,6.692-.966a3.058,3.058,0,0,0,4.251-.883,16.954,16.954,0,0,0,2.031-3.7c.806-2.034,1.826-3.4,4.327-3.246,1.88.113,2.45-.908,2.094-2.758a4.356,4.356,0,0,1-.133-2.449,7.824,7.824,0,0,1,2.532-3.067c.437-.273,1.77.776,2.606,1.354.62.428,1.012,1.33,1.66,1.541s1.463-.191,2.205-.324c-.249-.622-.329-1.487-.786-1.807-.669-.469-1.671-.423-2.414-.82a7.187,7.187,0,0,1-2.6-1.957c-.247-.36.409-1.9.989-2.166a4.344,4.344,0,0,1,3.174-.236c1.036.437,1.781,1.587,2.638,2.442a19.661,19.661,0,0,0,2.578,2.563c1.372.927,2.6.193,3.467-.968a1.812,1.812,0,0,0-.749-2.79,7.43,7.43,0,0,0-3.057-.778c-2.2-.19-3.956-.964-4.863-3.147-.862-2.076.108-3.529,1.463-5,1.513-1.639,1.446-2.6-.005-4.419-1-1.253-2.159-2.388-3.063-3.7-1.613-2.35-1.161-4.56,1.191-6.147a10.4,10.4,0,0,1,10.56-1.02,9.751,9.751,0,0,0,2.53.819,3.119,3.119,0,0,0,3.649-2.367C519.533,295.9,518.3,294.568,516.309,294.26ZM458.3,312.927a3.17,3.17,0,1,1,3.138-3.17A3.154,3.154,0,0,1,458.3,312.927Zm5.491,16.64a3.17,3.17,0,1,1,3.138-3.169A3.153,3.153,0,0,1,463.789,329.566Zm9.653-25.15V302.45a3.1,3.1,0,0,1-1.024.176,3.17,3.17,0,1,1,3.138-3.169C475.7,302.129,473.442,304.417,473.442,304.417Zm7.6,25.15a3.17,3.17,0,1,1,3.138-3.169A3.153,3.153,0,0,1,481.047,329.566Zm6.661-14.894V312.7a3.1,3.1,0,0,1-1.17.23,3.17,3.17,0,1,1,3.138-3.17S489.676,313.181,487.708,314.672Z" transform="translate(-428.364 -270.945)" fill="#deb992"/></g></g></svg>