<svg xmlns="http://www.w3.org/2000/svg" width="45.706" height="42.274" viewBox="0 0 45.706 42.274">
  <path id="follow_button" d="M22.354,42.274a1.206,1.206,0,0,1-.89-.436l.475-1.352-.275-.108-.674.794c.24-.731.553-1.406,1.2-1.406a1.1,1.1,0,0,1,.206.021,1.733,1.733,0,0,1,1.152.933,1.564,1.564,0,0,1-.517,1.3A1.036,1.036,0,0,1,22.354,42.274Zm-7.706-1.195h0a1.5,1.5,0,0,1-.31-.034c.014-.183.023-.367.033-.545a10.141,10.141,0,0,1,.122-1.285.849.849,0,0,1,.249-.383,1.325,1.325,0,0,0,.227-.3c.11-.225.23-.453.347-.673a7.569,7.569,0,0,0,.8-1.914,1.237,1.237,0,0,0-.185-1.072,1.6,1.6,0,0,0-1.277-.488h-.044c-.153,0-.309.014-.459.028s-.316.028-.472.028H13.6a1.111,1.111,0,0,1-1.156-.947c-.224-.914-.682-1.418-1.291-1.418a2.022,2.022,0,0,0-1.352.717,3.249,3.249,0,0,0-.225.263,2.042,2.042,0,0,1-.358.379,2.84,2.84,0,0,1-.577.3c-.1.045-.213.091-.329.147,0-1.077.2-1.761,1.206-2.076a.9.9,0,0,0,.642-.608.93.93,0,0,0-.286-.871,5.814,5.814,0,0,0-1.853-1.27c-.638-.27-1.006-.474-1.12-.776-.1-.261-.023-.593.279-1.226a1.916,1.916,0,0,0-.147-2.095,4.088,4.088,0,0,1-.8-3.657.688.688,0,0,0-.033-.608.473.473,0,0,0-.4-.161,1.346,1.346,0,0,0-.383.064,2.583,2.583,0,0,0-.459.208,2.314,2.314,0,0,1-.5.22,1.814,1.814,0,0,1-.446.054,2.417,2.417,0,0,1-.666-.1c.084-.106.164-.214.242-.319.382-.517.742-1.005,1.443-1.005a1.908,1.908,0,0,1,.418.05,1.013,1.013,0,0,0,.223.026.908.908,0,0,0,.762-.426,1.336,1.336,0,0,0,.085-1.247,2.845,2.845,0,0,0-2.593-1.567,3.451,3.451,0,0,0-.4-.022c-.277,0-.562.027-.837.053H2.671c-.273.026-.555.052-.83.052-.109,0-.209,0-.306-.012A3.289,3.289,0,0,1,.052,15.97a.157.157,0,0,1-.046-.109,1.37,1.37,0,0,1,.2-.829,1.423,1.423,0,0,1,1.062-.586,1.244,1.244,0,0,1,.561.145c.345.175.693.359,1.03.537a24.58,24.58,0,0,0,2.679,1.283,4.58,4.58,0,0,0,1.568.365c.988,0,1.514-.671,1.814-2.315a4.369,4.369,0,0,1,1.8-3.067c1.433-1,1.415-1.068.969-2.886l0-.015c.135.015.264.032.389.049a7.168,7.168,0,0,0,.8.077h.03a2.766,2.766,0,0,0,.524-.069c.079-.015.16-.031.241-.044-.016-.085-.024-.179-.031-.269a1.049,1.049,0,0,0-.134-.533C13.077,7.133,12.617,6.581,12.13,6c-.193-.232-.388-.466-.588-.71l.447-.39.657-.574c.084.223.162.43.236.626.159.423.3.786.441,1.153.07.178.135.363.2.543A5.666,5.666,0,0,0,14.1,7.95a.992.992,0,0,0,.787.493.864.864,0,0,0,.757-.564c.569-1.2,1.5-1.222,2.57-1.249l.162,0a12.845,12.845,0,0,0,3.635-.641,1.448,1.448,0,0,0,.964-.725,1.765,1.765,0,0,0-.215-1.436,1.358,1.358,0,0,0-.087-.147c-.065-.1-.132-.2-.112-.283a2.166,2.166,0,0,1,.387-.9.352.352,0,0,1,.244-.061.609.609,0,0,1,.421.123,1.375,1.375,0,0,1,.15.848,3.086,3.086,0,0,1-.121.545,2.379,2.379,0,0,0-.125.673c.009.538.234.834.631.834a1.306,1.306,0,0,0,.533-.136,3.577,3.577,0,0,1,1.408-.422c.633,0,1.052.46,1.605,1.31a3.038,3.038,0,0,0,1.123,1,15.57,15.57,0,0,0,1.869.759l.455.163a3.757,3.757,0,0,1,2.478,2.637c.02.068.039.138.058.208A3.452,3.452,0,0,0,34.19,12.2a1.859,1.859,0,0,0,1.212.732c.348,0,.792-.5,1-.855a4.537,4.537,0,0,0,.347-.869,4.21,4.21,0,0,1,.377-.918,2.856,2.856,0,0,1,1.169-1.065,1.016,1.016,0,0,1,1.448.729.934.934,0,0,1-.009.76,1.175,1.175,0,0,1-.779.529c-.093.026-.192.047-.288.067a1.718,1.718,0,0,0-.71.26,3.472,3.472,0,0,0-.614.717c-.079.111-.16.225-.245.332a4.233,4.233,0,0,1,.33.288,1.563,1.563,0,0,0,.735.479,6.592,6.592,0,0,0,.911.065,6.743,6.743,0,0,0,3.94-1.334c-.1.373-.171.632-.248.912l0,.008h.022a1.523,1.523,0,0,0,1.2-.49.976.976,0,0,0,.2-.831c1,.154,1.62.823,1.513,1.625a1.523,1.523,0,0,1-1.582,1.207,1.919,1.919,0,0,1-.252-.017,4.961,4.961,0,0,1-1.27-.411,5.611,5.611,0,0,0-2.24-.5,5.441,5.441,0,0,0-3.065,1.008,2.243,2.243,0,0,0-1.048,1.411,2.215,2.215,0,0,0,.45,1.678,12.38,12.38,0,0,0,.932,1.149c.2.23.412.468.606.712.747.936.748,1.413,0,2.22a2.2,2.2,0,0,0-.735,2.51,2.558,2.558,0,0,0,2.443,1.581,3.774,3.774,0,0,1,1.535.391,1.119,1.119,0,0,1,.564.705.854.854,0,0,1-.188.7,1.508,1.508,0,0,1-1.114.7,1.12,1.12,0,0,1-.628-.211,4.976,4.976,0,0,1-.88-.84c-.134-.15-.272-.3-.414-.447-.124-.124-.246-.262-.363-.4a2.958,2.958,0,0,0-.963-.831,1.509,1.509,0,0,0-.584-.1,2.5,2.5,0,0,0-1.01.221,1.373,1.373,0,0,0-.492.77.433.433,0,0,0-.005.319,3.571,3.571,0,0,0,1.305.983,2.249,2.249,0,0,0,.567.18,1.8,1.8,0,0,1,.645.232,1.081,1.081,0,0,1,.3.6,3.256,3.256,0,0,0,.1.311c-.114.02-.233.054-.349.086a2.2,2.2,0,0,1-.558.107.64.64,0,0,1-.2-.029,1.178,1.178,0,0,1-.477-.413,1.9,1.9,0,0,0-.357-.361l-.2-.139a2.792,2.792,0,0,0-1.023-.564.166.166,0,0,0-.089.022,3.97,3.97,0,0,0-1.272,1.541,1.711,1.711,0,0,0,.025,1.028c.015.069.029.137.042.2a1.328,1.328,0,0,1-.136,1.1.961.961,0,0,1-.78.287c-.044,0-.09,0-.137,0-.063,0-.124-.006-.184-.006-1.114,0-1.6.654-1.99,1.637a8.529,8.529,0,0,1-1.02,1.856,1.482,1.482,0,0,1-1.222.687,2.06,2.06,0,0,1-.914-.244,4.309,4.309,0,0,0-1.655-.619c-.491,0-.878.339-1.707,1.1a3.544,3.544,0,0,1-2.316,1.268,4.09,4.09,0,0,1-2.115-.833,7.617,7.617,0,0,0-.837-.479,2.283,2.283,0,0,0-.962-.232,1.7,1.7,0,0,0-1.628,1.347,5.792,5.792,0,0,0-.191,1.246c-.015.19-.031.385-.055.575C15.862,40.46,15.38,41.079,14.648,41.079Zm1.689-21.571a1.088,1.088,0,0,0-1.086,1.087v1.086a1.087,1.087,0,0,0,1.086,1.086h4.887v4.887a1.087,1.087,0,0,0,1.086,1.086H23.4a1.087,1.087,0,0,0,1.086-1.086V22.767h4.887a1.087,1.087,0,0,0,1.086-1.086V20.595a1.088,1.088,0,0,0-1.086-1.087H24.481V14.621A1.087,1.087,0,0,0,23.4,13.535H22.309a1.087,1.087,0,0,0-1.086,1.086v4.887Zm9.08,20.25a.186.186,0,0,1-.056-.008c-.2-.072-.32-.155-.356-.255-.043-.122.036-.251.12-.387.119-.194.243-.4,0-.582l.395-.133.132-.044c.05.091.108.182.165.271a1.664,1.664,0,0,1,.309.686.163.163,0,0,1-.056.1A1.213,1.213,0,0,1,25.416,39.758ZM5.1,30.086a.6.6,0,0,1-.474-.211.876.876,0,0,1-.148-.721c.051-.617.154-1.171.841-1.171l.086,0a1.109,1.109,0,0,1,.852.414.845.845,0,0,1,.115.728,1.628,1.628,0,0,1-1.1.94A.971.971,0,0,1,5.1,30.086ZM4.361,10.819a.66.66,0,0,1-.547-.262.7.7,0,0,1-.07-.645c.135-.408.49-1.02.859-1.1a.246.246,0,0,1,.051-.005c.2,0,.464.239.714.471a4.772,4.772,0,0,0,.361.313l-.01.467c-.123.08-.245.176-.363.269a2.109,2.109,0,0,1-.838.479A.916.916,0,0,1,4.361,10.819Zm23.8-7.625h-.045A1.583,1.583,0,0,1,26.6,1.516,1.528,1.528,0,0,1,28.14,0h.017A1.633,1.633,0,0,1,29.3.5a1.55,1.55,0,0,1,.455,1.111A1.652,1.652,0,0,1,28.163,3.193Z" fill="#deb992"/>
</svg>
