<svg xmlns="http://www.w3.org/2000/svg" width="45.706" height="42.274" viewBox="0 0 45.706 42.274">
  <path id="go_button" d="M22.354,42.274a1.22,1.22,0,0,1-.89-.437c.128-.363.247-.7.364-1.034l0-.011.108-.307-.137-.054-.137-.054-.673.794c.24-.731.553-1.406,1.2-1.406a1.094,1.094,0,0,1,.206.021,1.734,1.734,0,0,1,1.152.932,1.563,1.563,0,0,1-.518,1.3A1.046,1.046,0,0,1,22.354,42.274Zm-7.707-1.2h0a1.454,1.454,0,0,1-.31-.034c.014-.184.024-.37.033-.55a10.116,10.116,0,0,1,.122-1.279.847.847,0,0,1,.249-.383,1.326,1.326,0,0,0,.227-.3c.109-.224.23-.451.346-.671a7.583,7.583,0,0,0,.8-1.917,1.237,1.237,0,0,0-.185-1.071,1.6,1.6,0,0,0-1.277-.488h-.048c-.145,0-.292.014-.435.027l-.02,0c-.154.014-.313.028-.47.028H13.6a1.11,1.11,0,0,1-1.156-.947c-.224-.914-.682-1.417-1.291-1.417a2.022,2.022,0,0,0-1.352.717,3.2,3.2,0,0,0-.228.265,2.031,2.031,0,0,1-.356.376,2.841,2.841,0,0,1-.576.3c-.105.045-.214.092-.33.147,0-1.077.2-1.761,1.206-2.076a.9.9,0,0,0,.642-.608.929.929,0,0,0-.286-.87,5.817,5.817,0,0,0-1.853-1.271c-.639-.27-1.006-.474-1.121-.775-.1-.261-.023-.593.279-1.225a1.917,1.917,0,0,0-.147-2.1,4.086,4.086,0,0,1-.8-3.657.688.688,0,0,0-.033-.608.472.472,0,0,0-.4-.161,1.344,1.344,0,0,0-.383.064,2.581,2.581,0,0,0-.461.209,2.315,2.315,0,0,1-.5.22,1.816,1.816,0,0,1-.445.054,2.4,2.4,0,0,1-.666-.1c.084-.106.164-.214.241-.319.382-.517.742-1.005,1.443-1.005a1.909,1.909,0,0,1,.417.05,1.013,1.013,0,0,0,.224.026.908.908,0,0,0,.762-.426,1.337,1.337,0,0,0,.085-1.247,2.846,2.846,0,0,0-2.593-1.567,3.445,3.445,0,0,0-.4-.022c-.28,0-.562.027-.834.053H2.674c-.275.026-.558.052-.835.052-.108,0-.207,0-.3-.012A3.293,3.293,0,0,1,.052,15.97a.156.156,0,0,1-.046-.108,1.369,1.369,0,0,1,.2-.829,1.421,1.421,0,0,1,1.061-.586,1.246,1.246,0,0,1,.562.145c.344.174.692.358,1.028.537a24.43,24.43,0,0,0,2.68,1.283,4.58,4.58,0,0,0,1.568.365c.988,0,1.514-.671,1.813-2.315a4.366,4.366,0,0,1,1.8-3.066c1.432-1,1.415-1.068.97-2.886l0-.016c.136.015.266.033.391.049a7.129,7.129,0,0,0,.8.077H12.9a2.8,2.8,0,0,0,.53-.069c.078-.015.159-.031.238-.043-.016-.085-.024-.179-.031-.269a1.044,1.044,0,0,0-.135-.533c-.428-.571-.888-1.123-1.375-1.707-.192-.23-.388-.466-.59-.712l.645-.564.458-.4c.079.207.151.4.221.586.164.437.306.814.456,1.192.07.178.135.363.2.542A5.67,5.67,0,0,0,14.1,7.95a.992.992,0,0,0,.787.493.864.864,0,0,0,.757-.564c.569-1.2,1.5-1.223,2.572-1.25l.161,0a12.837,12.837,0,0,0,3.636-.641,1.447,1.447,0,0,0,.963-.725,1.765,1.765,0,0,0-.216-1.436,1.345,1.345,0,0,0-.087-.147c-.065-.1-.131-.2-.111-.282a2.174,2.174,0,0,1,.386-.9.354.354,0,0,1,.244-.061.609.609,0,0,1,.422.123,1.386,1.386,0,0,1,.15.849,3.1,3.1,0,0,1-.121.545,2.394,2.394,0,0,0-.125.673c.009.537.234.833.631.833a1.307,1.307,0,0,0,.533-.137,3.577,3.577,0,0,1,1.408-.422c.633,0,1.053.46,1.606,1.31a3.043,3.043,0,0,0,1.123,1,15.609,15.609,0,0,0,1.867.758l.457.164a3.757,3.757,0,0,1,2.479,2.636c.019.066.037.133.056.2a3.467,3.467,0,0,0,.51,1.233,1.863,1.863,0,0,0,1.213.733c.347,0,.792-.5,1-.855a4.533,4.533,0,0,0,.347-.869,4.208,4.208,0,0,1,.377-.918,2.852,2.852,0,0,1,1.169-1.066,1.016,1.016,0,0,1,1.448.729.934.934,0,0,1-.009.761,1.174,1.174,0,0,1-.779.528c-.093.025-.192.047-.287.067a1.717,1.717,0,0,0-.711.261,3.485,3.485,0,0,0-.613.716c-.079.111-.161.226-.245.333a4.236,4.236,0,0,1,.33.288,1.568,1.568,0,0,0,.735.48,6.593,6.593,0,0,0,.91.064,6.742,6.742,0,0,0,3.941-1.334c-.074.276-.132.489-.188.694l-.062.226h.021a1.523,1.523,0,0,0,1.2-.49.975.975,0,0,0,.2-.831c1,.154,1.62.822,1.513,1.624a1.523,1.523,0,0,1-1.581,1.207,1.918,1.918,0,0,1-.252-.017,4.917,4.917,0,0,1-1.27-.411,5.61,5.61,0,0,0-2.24-.5,5.441,5.441,0,0,0-3.065,1.008,2.243,2.243,0,0,0-1.049,1.412,2.212,2.212,0,0,0,.45,1.676,12.409,12.409,0,0,0,.932,1.149c.2.231.412.469.606.712.747.935.748,1.413,0,2.22a2.2,2.2,0,0,0-.735,2.51,2.558,2.558,0,0,0,2.444,1.58,3.765,3.765,0,0,1,1.535.391,1.12,1.12,0,0,1,.565.705.855.855,0,0,1-.188.7,1.51,1.51,0,0,1-1.114.7,1.12,1.12,0,0,1-.628-.211,4.959,4.959,0,0,1-.881-.841c-.133-.15-.271-.3-.414-.447-.124-.123-.245-.261-.362-.395a2.961,2.961,0,0,0-.964-.832,1.506,1.506,0,0,0-.582-.1,2.51,2.51,0,0,0-1.012.221,1.375,1.375,0,0,0-.492.77.433.433,0,0,0-.005.319,3.591,3.591,0,0,0,1.3.983,2.253,2.253,0,0,0,.568.181,1.8,1.8,0,0,1,.645.231,1.083,1.083,0,0,1,.3.6,3.26,3.26,0,0,0,.1.311c-.114.02-.234.054-.35.086a2.2,2.2,0,0,1-.557.107.64.64,0,0,1-.2-.029,1.181,1.181,0,0,1-.478-.413,1.909,1.909,0,0,0-.357-.362l-.2-.139a2.792,2.792,0,0,0-1.022-.563.166.166,0,0,0-.089.022,3.972,3.972,0,0,0-1.273,1.541,1.719,1.719,0,0,0,.026,1.031c.015.07.029.136.041.2a1.328,1.328,0,0,1-.136,1.1.963.963,0,0,1-.781.287c-.044,0-.089,0-.135,0-.063,0-.125-.006-.185-.006-1.113,0-1.6.654-1.989,1.636A8.5,8.5,0,0,1,29.6,35.514a1.481,1.481,0,0,1-1.222.688,2.058,2.058,0,0,1-.914-.244,4.306,4.306,0,0,0-1.655-.62c-.491,0-.878.339-1.706,1.105a3.545,3.545,0,0,1-2.316,1.267,4.091,4.091,0,0,1-2.115-.833l-.011-.007a7.727,7.727,0,0,0-.826-.472,2.283,2.283,0,0,0-.962-.232,1.7,1.7,0,0,0-1.628,1.347,5.8,5.8,0,0,0-.192,1.249c-.015.188-.031.383-.054.572C15.862,40.459,15.381,41.079,14.648,41.079Zm5.175-27.652a.84.84,0,0,0-.6.248l-.8.8a.849.849,0,0,0,0,1.2l5.438,5.464L18.421,26.6a.849.849,0,0,0,0,1.2l.8.8a.848.848,0,0,0,1.2,0l6.863-6.863a.846.846,0,0,0,0-1.2l-6.863-6.862A.84.84,0,0,0,19.822,13.427Zm5.594,26.33a.2.2,0,0,1-.055-.008c-.2-.072-.32-.155-.356-.255-.043-.122.036-.251.119-.387.119-.194.243-.4,0-.582l.176-.059.351-.118c.05.091.108.183.165.272a1.659,1.659,0,0,1,.309.686.162.162,0,0,1-.056.1A1.234,1.234,0,0,1,25.416,39.757ZM5.1,30.085a.6.6,0,0,1-.475-.211.876.876,0,0,1-.148-.721c.051-.617.154-1.171.842-1.171l.085,0a1.109,1.109,0,0,1,.852.414.844.844,0,0,1,.115.728,1.629,1.629,0,0,1-1.1.941A1.027,1.027,0,0,1,5.1,30.085ZM4.361,10.819a.661.661,0,0,1-.547-.262.7.7,0,0,1-.07-.645c.135-.408.49-1.02.859-1.1a.246.246,0,0,1,.051-.005c.2,0,.464.239.714.471a4.757,4.757,0,0,0,.361.313l-.011.467c-.123.081-.245.177-.363.269a2.108,2.108,0,0,1-.836.479A.956.956,0,0,1,4.361,10.819Zm23.8-7.626h-.045A1.583,1.583,0,0,1,26.6,1.516,1.527,1.527,0,0,1,28.141,0h.017A1.632,1.632,0,0,1,29.3.5a1.548,1.548,0,0,1,.454,1.111A1.651,1.651,0,0,1,28.163,3.193Z" transform="translate(0 0)" fill="#deb992"/>
</svg>
