<svg xmlns="http://www.w3.org/2000/svg" width="40" height="33.826" viewBox="0 0 40 33.826">
  <path id="Path_14" d="M467.03,283.9c.134.634-.4,1.164-1.243,1.156l.219-.8a5.774,5.774,0,0,1-4.245,1.11c-.335-.047-.622-.438-.932-.671a5.33,5.33,0,0,1,.752-.918,2.461,2.461,0,0,1,.872-.287c.581-.161.9-.522.691-1.127a.9.9,0,0,0-1.267-.638,2.491,2.491,0,0,0-1.023.932c-.29.472-.356,1.081-.634,1.564-.188.327-.573.748-.87.749a1.618,1.618,0,0,1-1.062-.641,3.653,3.653,0,0,1-.5-1.254,3.3,3.3,0,0,0-2.169-2.308,17.859,17.859,0,0,1-2.034-.807,2.667,2.667,0,0,1-.984-.878c-.825-1.268-1.243-1.415-2.637-.776-.608.279-1.007.066-1.019-.611a10.522,10.522,0,0,1,.215-1.066,1.228,1.228,0,0,0-.131-.743.594.594,0,0,0-.583-.053,1.894,1.894,0,0,0-.339.79c-.026.1.114.249.175.376.459.959.336,1.562-.656,1.891a11.2,11.2,0,0,1-3.181.56c-1,.028-1.869,0-2.391,1.1a.725.725,0,0,1-1.352.062,8.264,8.264,0,0,1-.684-1.618c-.187-.472-.362-.95-.592-1.557l-.966.844c.627.762,1.2,1.421,1.72,2.117.129.172.1.465.145.7a4.149,4.149,0,0,1-.7.1c-.33-.007-.659-.067-1.041-.11.395,1.608.413,1.664-.845,2.539a3.842,3.842,0,0,0-1.578,2.684c-.36,1.978-1.1,2.418-2.959,1.706a35.112,35.112,0,0,1-3.246-1.593,1.106,1.106,0,0,0-1.42.386c-.163.187-.234.755-.135.821a2.949,2.949,0,0,0,1.3.519c.691.058,1.406-.143,2.091-.063a2.484,2.484,0,0,1,2.269,1.372c.324.762-.176,1.615-.937,1.442-1.015-.23-1.338.483-1.84,1.115a1.858,1.858,0,0,0,.974.04c.293-.074.551-.287.843-.375.52-.156.888.005.711.617a3.6,3.6,0,0,0,.7,3.2,1.668,1.668,0,0,1,.129,1.833c-.509,1.063-.356,1.288.736,1.751a5.086,5.086,0,0,1,1.622,1.112.736.736,0,0,1-.312,1.294c-.866.27-1.058.852-1.056,1.817a5.036,5.036,0,0,0,.793-.39,5.1,5.1,0,0,0,.51-.561c1.011-1.024,1.973-.779,2.313.612a.974.974,0,0,0,1.012.829c.307.011.617-.053.925-.048.921.013,1.465.484,1.278,1.366a10.419,10.419,0,0,1-1.007,2.264c-.106.217-.378.379-.417.6a15.321,15.321,0,0,0-.136,1.6c.767.168,1.315-.355,1.459-1.5a9.325,9.325,0,0,1,.215-1.594,1.514,1.514,0,0,1,2.267-.976,6.642,6.642,0,0,1,.732.42c1.676,1.059,2.4.99,3.879-.38,1.295-1.2,1.363-1.216,2.942-.425a1.345,1.345,0,0,0,1.869-.388,7.452,7.452,0,0,0,.893-1.625c.354-.894.8-1.493,1.9-1.427.827.05,1.077-.4.921-1.212a1.915,1.915,0,0,1-.058-1.077,3.439,3.439,0,0,1,1.113-1.348c.192-.12.778.341,1.146.6.272.188.445.585.73.678s.643-.084.97-.143c-.109-.273-.145-.654-.345-.794-.294-.206-.735-.186-1.061-.361a3.16,3.16,0,0,1-1.143-.861c-.109-.158.18-.833.435-.952a1.91,1.91,0,0,1,1.4-.1c.455.192.783.7,1.16,1.074a8.641,8.641,0,0,0,1.133,1.127c.6.408,1.141.085,1.524-.426a.8.8,0,0,0-.329-1.226,3.266,3.266,0,0,0-1.344-.342,2.264,2.264,0,0,1-2.138-1.384,1.917,1.917,0,0,1,.643-2.2c.665-.721.636-1.144,0-1.943-.44-.551-.949-1.05-1.347-1.629a1.756,1.756,0,0,1,.524-2.7,4.572,4.572,0,0,1,4.643-.448,4.288,4.288,0,0,0,1.112.36,1.371,1.371,0,0,0,1.6-1.041C468.447,284.625,467.9,284.04,467.03,283.9Zm-25.5,8.207a1.394,1.394,0,1,1,1.38-1.394A1.387,1.387,0,0,1,441.525,292.112Zm2.414,7.316a1.394,1.394,0,1,1,1.38-1.393A1.386,1.386,0,0,1,443.939,299.428Zm4.244-11.057v-.865a1.364,1.364,0,0,1-.45.077,1.394,1.394,0,1,1,1.38-1.393A3.324,3.324,0,0,1,448.183,288.37Zm3.343,11.057a1.394,1.394,0,1,1,1.38-1.393A1.386,1.386,0,0,1,451.527,299.428Zm2.929-6.548v-.869a1.365,1.365,0,0,1-.514.1,1.394,1.394,0,1,1,1.38-1.394A3.063,3.063,0,0,1,454.455,292.879Z" transform="translate(-428.364 -275.78)" fill="#deb992"/>
</svg>
