<svg xmlns="http://www.w3.org/2000/svg" width="30" height="30" viewBox="0 0 30 30"><g transform="translate(0.49 0.49)"><g transform="translate(-0.49 -0.49)"><rect width="30" height="30" transform="translate(0 0)" fill="none"/><rect width="30" height="30" transform="translate(0 0)" fill="none"/></g><g transform="translate(1.156 3.623)"><path d="M28.708,8.574a11.108,11.108,0,0,1-3.156.91A5.706,5.706,0,0,0,27.979,6.45a14.082,14.082,0,0,1-3.46,1.335,5.524,5.524,0,0,0-9.53,3.7,4.613,4.613,0,0,0,.182,1.275A15.66,15.66,0,0,1,3.882,7.057a5.159,5.159,0,0,0-.789,2.731,5.4,5.4,0,0,0,2.489,4.552,4.917,4.917,0,0,1-2.489-.668h0a5.4,5.4,0,0,0,4.37,5.4,5.22,5.22,0,0,1-1.457.243L4.974,19.2a5.584,5.584,0,0,0,5.159,3.824,11.047,11.047,0,0,1-6.8,2.307H2a15.236,15.236,0,0,0,8.376,2.489,15.512,15.512,0,0,0,15.6-15.6v-.789A11.108,11.108,0,0,0,28.708,8.574Z" transform="translate(-2 -6.063)" fill="#071b2a"/></g></g></svg>