<svg xmlns="http://www.w3.org/2000/svg" width="18.525" height="18.499" viewBox="0 0 18.525 18.499">
  <path id="madalya" d="M8.749,17.5a6.015,6.015,0,1,1,6.017-6.015A6.022,6.022,0,0,1,8.749,17.5Zm-.233-7.006v3.794H9.592V9.275H8.94a4.582,4.582,0,0,1-1.466.735v.909a2.165,2.165,0,0,0,.291-.057,2.287,2.287,0,0,0,.284-.1,2.228,2.228,0,0,0,.258-.127,1.355,1.355,0,0,0,.208-.147ZM3.9,6.294h0L.1.86A.539.539,0,0,1,.061.294.539.539,0,0,1,.546,0h3.8a1.1,1.1,0,0,1,.938.531L7.646,4.469A7.065,7.065,0,0,0,3.9,6.293Zm9.7,0h0A7.07,7.07,0,0,0,9.851,4.469L12.214.531A1.1,1.1,0,0,1,13.153,0h3.8a.538.538,0,0,1,.485.294A.538.538,0,0,1,17.4.86L13.6,6.292Z" transform="translate(0.514 0.5)" fill="#c89e72" stroke="rgba(0,0,0,0)" stroke-miterlimit="10" stroke-width="1"/>
</svg>
